<?xml version="1.0" encoding="UTF-8" standalone="no"?>
<svg
   xmlns:dc="http://purl.org/dc/elements/1.1/"
   xmlns:cc="http://creativecommons.org/ns#"
   xmlns:rdf="http://www.w3.org/1999/02/22-rdf-syntax-ns#"
   xmlns:svg="http://www.w3.org/2000/svg"
   xmlns="http://www.w3.org/2000/svg"
   xmlns:xlink="http://www.w3.org/1999/xlink"
   xmlns:sodipodi="http://sodipodi.sourceforge.net/DTD/sodipodi-0.dtd"
   xmlns:inkscape="http://www.inkscape.org/namespaces/inkscape"
   width="210mm"
   height="210mm"
   viewBox="0 0 210 210"
   version="1.1"
   id="svg8"
   inkscape:version="1.0.2 (e86c870879, 2021-01-15, custom)"
   sodipodi:docname="gear-logo.svg">
  <defs
     id="defs2">
    <linearGradient
       inkscape:collect="always"
       id="Gold">
      <stop
         style="stop-color:#ffcc00;stop-opacity:1"
         offset="0"
         id="stop1126" />
      <stop
         style="stop-color:#ffeeaa;stop-opacity:1"
         offset="0.23590825"
         id="stop1144" />
      <stop
         style="stop-color:#ffcc00;stop-opacity:1"
         offset="0.36392936"
         id="stop1134" />
      <stop
         style="stop-color:#aa8800;stop-opacity:1"
         offset="0.45091096"
         id="stop1136" />
      <stop
         style="stop-color:#ffdd55;stop-opacity:1"
         offset="0.52303237"
         id="stop1138" />
      <stop
         style="stop-color:#ffe680;stop-opacity:1"
         offset="0.64425689"
         id="stop1142" />
      <stop
         style="stop-color:#806600;stop-opacity:1"
         offset="0.76233548"
         id="stop1140" />
      <stop
         style="stop-color:#ffd42a;stop-opacity:1"
         offset="0.87369221"
         id="stop1146" />
      <stop
         style="stop-color:#ffdd55;stop-opacity:1"
         offset="1"
         id="stop1128" />
    </linearGradient>
    <linearGradient
       inkscape:collect="always"
       xlink:href="#Gold"
       id="linearGradient1132"
       x1="30.56208"
       y1="260.48834"
       x2="840.53253"
       y2="482.3497"
       gradientUnits="userSpaceOnUse" />
  </defs>
  <sodipodi:namedview
     id="base"
     pagecolor="#ffffff"
     bordercolor="#666666"
     borderopacity="1.0"
     inkscape:pageopacity="0.0"
     inkscape:pageshadow="2"
     inkscape:zoom="0.7"
     inkscape:cx="146.69223"
     inkscape:cy="451.39002"
     inkscape:document-units="mm"
     inkscape:current-layer="layer3"
     inkscape:document-rotation="0"
     showgrid="false"
     showguides="true"
     inkscape:guide-bbox="true"
     inkscape:window-width="1920"
     inkscape:window-height="1080"
     inkscape:window-x="0"
     inkscape:window-y="0"
     inkscape:window-maximized="1" />
  <metadata
     id="metadata5">
    <rdf:RDF>
      <cc:Work
         rdf:about="">
        <dc:format>image/svg+xml</dc:format>
        <dc:type
           rdf:resource="http://purl.org/dc/dcmitype/StillImage" />
        <dc:title />
      </cc:Work>
    </rdf:RDF>
  </metadata>
  <g
     inkscape:groupmode="layer"
     id="layer3"
     inkscape:label="background">
    <circle
       style="font-variation-settings:'wght' 400;fill:#10003e;fill-opacity:1;stroke:none;stroke-width:1.665;stroke-opacity:1"
       id="path1212"
       cx="105"
       cy="105"
       r="104.58953" />
  </g>
  <g
     inkscape:label="motif"
     inkscape:groupmode="layer"
     id="layer1">
    <path
       id="path1066"
       style="font-variation-settings:'wght' 400;fill:url(#linearGradient1132);stroke:none;stroke-width:6.29291;fill-opacity:1"
       inkscape:transform-center-x="1.9602291"
       inkscape:transform-center-y="-9.1609365"
       d="M 442.59766 25.455078 A 374.20371 374.20371 0 0 0 442.28516 25.416016 A 374.20371 374.20371 0 0 0 440.66992 25.220703 A 374.20371 374.20371 0 0 0 439.05273 25.033203 A 374.20371 374.20371 0 0 0 437.4375 24.853516 A 374.20371 374.20371 0 0 0 435.82031 24.681641 A 374.20371 374.20371 0 0 0 434.20117 24.515625 A 374.20371 374.20371 0 0 0 432.58203 24.357422 A 374.20371 374.20371 0 0 0 430.96289 24.205078 A 374.20371 374.20371 0 0 0 429.3418 24.060547 A 374.20371 374.20371 0 0 0 427.72266 23.921875 A 374.20371 374.20371 0 0 0 426.09961 23.791016 A 374.20371 374.20371 0 0 0 424.47852 23.667969 A 374.20371 374.20371 0 0 0 422.85547 23.550781 A 374.20371 374.20371 0 0 0 421.23242 23.441406 A 374.20371 374.20371 0 0 0 419.60938 23.339844 A 374.20371 374.20371 0 0 0 417.98633 23.244141 A 374.20371 374.20371 0 0 0 416.36133 23.15625 A 374.20371 374.20371 0 0 0 414.73633 23.074219 A 374.20371 374.20371 0 0 0 413.11133 23 A 374.20371 374.20371 0 0 0 411.48633 22.933594 A 374.20371 374.20371 0 0 0 409.86133 22.873047 A 374.20371 374.20371 0 0 0 408.23438 22.820312 A 374.20371 374.20371 0 0 0 406.60938 22.773438 A 374.20371 374.20371 0 0 0 404.98242 22.734375 A 374.20371 374.20371 0 0 0 403.35742 22.703125 A 374.20371 374.20371 0 0 0 401.73047 22.677734 A 374.20371 374.20371 0 0 0 400.10352 22.660156 A 374.20371 374.20371 0 0 0 398.47656 22.650391 A 374.20371 374.20371 0 0 0 396.84961 22.646484 A 374.20371 374.20371 0 0 0 396.27734 22.646484 A 374.20371 374.20371 0 0 0 394.65039 22.652344 A 374.20371 374.20371 0 0 0 393.02344 22.666016 A 374.20371 374.20371 0 0 0 391.39648 22.685547 A 374.20371 374.20371 0 0 0 389.76953 22.712891 A 374.20371 374.20371 0 0 0 388.14453 22.748047 A 374.20371 374.20371 0 0 0 386.51758 22.789062 A 374.20371 374.20371 0 0 0 384.89258 22.837891 A 374.20371 374.20371 0 0 0 383.26562 22.892578 A 374.20371 374.20371 0 0 0 381.64062 22.955078 A 374.20371 374.20371 0 0 0 380.01562 23.025391 A 374.20371 374.20371 0 0 0 378.39062 23.101562 A 374.20371 374.20371 0 0 0 376.76562 23.185547 A 374.20371 374.20371 0 0 0 375.14258 23.277344 A 374.20371 374.20371 0 0 0 373.51758 23.375 A 374.20371 374.20371 0 0 0 371.89453 23.480469 A 374.20371 374.20371 0 0 0 370.27148 23.591797 A 374.20371 374.20371 0 0 0 368.65039 23.710938 A 374.20371 374.20371 0 0 0 367.02734 23.835938 A 374.20371 374.20371 0 0 0 365.40625 23.970703 A 374.20371 374.20371 0 0 0 363.78711 24.109375 A 374.20371 374.20371 0 0 0 362.16602 24.257812 A 374.20371 374.20371 0 0 0 361.87109 24.285156 L 353.97852 66.972656 A 332.65307 332.65307 0 0 0 246.1543 100.28906 L 215.55664 69.494141 A 374.20371 374.20371 0 0 0 215.55078 69.498047 A 374.20371 374.20371 0 0 0 214.12891 70.291016 A 374.20371 374.20371 0 0 0 212.71289 71.087891 A 374.20371 374.20371 0 0 0 211.29688 71.890625 A 374.20371 374.20371 0 0 0 209.88672 72.701172 A 374.20371 374.20371 0 0 0 208.48047 73.515625 A 374.20371 374.20371 0 0 0 207.07617 74.337891 A 374.20371 374.20371 0 0 0 205.67578 75.166016 A 374.20371 374.20371 0 0 0 204.2793 76 A 374.20371 374.20371 0 0 0 202.88672 76.839844 A 374.20371 374.20371 0 0 0 201.49609 77.6875 A 374.20371 374.20371 0 0 0 200.11133 78.539062 A 374.20371 374.20371 0 0 0 198.73047 79.396484 A 374.20371 374.20371 0 0 0 197.35156 80.261719 A 374.20371 374.20371 0 0 0 195.97656 81.130859 A 374.20371 374.20371 0 0 0 194.60742 82.007812 A 374.20371 374.20371 0 0 0 193.24023 82.890625 A 374.20371 374.20371 0 0 0 191.87695 83.777344 A 374.20371 374.20371 0 0 0 190.51758 84.671875 A 374.20371 374.20371 0 0 0 189.16211 85.572266 A 374.20371 374.20371 0 0 0 187.8125 86.478516 A 374.20371 374.20371 0 0 0 186.46484 87.388672 A 374.20371 374.20371 0 0 0 185.12109 88.306641 A 374.20371 374.20371 0 0 0 183.78125 89.230469 A 374.20371 374.20371 0 0 0 182.44727 90.158203 A 374.20371 374.20371 0 0 0 181.11523 91.09375 A 374.20371 374.20371 0 0 0 179.78906 92.035156 A 374.20371 374.20371 0 0 0 178.46484 92.980469 A 374.20371 374.20371 0 0 0 177.14648 93.933594 A 374.20371 374.20371 0 0 0 175.83203 94.890625 A 374.20371 374.20371 0 0 0 174.52148 95.855469 A 374.20371 374.20371 0 0 0 173.21484 96.824219 A 374.20371 374.20371 0 0 0 171.91406 97.798828 A 374.20371 374.20371 0 0 0 170.61523 98.779297 A 374.20371 374.20371 0 0 0 169.32227 99.765625 A 374.20371 374.20371 0 0 0 168.0332 100.75781 A 374.20371 374.20371 0 0 0 166.74805 101.75586 A 374.20371 374.20371 0 0 0 165.4668 102.75781 A 374.20371 374.20371 0 0 0 164.19141 103.76758 A 374.20371 374.20371 0 0 0 162.91992 104.78125 A 374.20371 374.20371 0 0 0 161.65234 105.80078 A 374.20371 374.20371 0 0 0 160.38867 106.82617 A 374.20371 374.20371 0 0 0 159.13086 107.85742 A 374.20371 374.20371 0 0 0 157.87695 108.89258 A 374.20371 374.20371 0 0 0 156.62695 109.93359 A 374.20371 374.20371 0 0 0 155.38086 110.98047 A 374.20371 374.20371 0 0 0 154.14062 112.0332 A 374.20371 374.20371 0 0 0 152.90625 113.0918 A 374.20371 374.20371 0 0 0 151.67383 114.1543 A 374.20371 374.20371 0 0 0 150.44727 115.22266 A 374.20371 374.20371 0 0 0 149.5625 116 L 168.26953 155.17188 A 332.65307 332.65307 0 0 0 100.62109 245.50391 L 57.767578 238.57617 A 374.20371 374.20371 0 0 0 57.449219 239.25977 A 374.20371 374.20371 0 0 0 56.767578 240.73633 A 374.20371 374.20371 0 0 0 56.091797 242.2168 A 374.20371 374.20371 0 0 0 55.421875 243.69922 A 374.20371 374.20371 0 0 0 54.759766 245.18359 A 374.20371 374.20371 0 0 0 54.103516 246.67188 A 374.20371 374.20371 0 0 0 53.455078 248.16406 A 374.20371 374.20371 0 0 0 52.810547 249.6582 A 374.20371 374.20371 0 0 0 52.173828 251.1543 A 374.20371 374.20371 0 0 0 51.544922 252.6543 A 374.20371 374.20371 0 0 0 50.921875 254.1582 A 374.20371 374.20371 0 0 0 50.304688 255.66211 A 374.20371 374.20371 0 0 0 49.693359 257.16992 A 374.20371 374.20371 0 0 0 49.089844 258.67969 A 374.20371 374.20371 0 0 0 48.492188 260.19336 A 374.20371 374.20371 0 0 0 47.902344 261.70898 A 374.20371 374.20371 0 0 0 47.318359 263.22656 A 374.20371 374.20371 0 0 0 46.740234 264.74805 A 374.20371 374.20371 0 0 0 46.169922 266.27148 A 374.20371 374.20371 0 0 0 45.605469 267.79688 A 374.20371 374.20371 0 0 0 45.046875 269.32422 A 374.20371 374.20371 0 0 0 44.496094 270.85547 A 374.20371 374.20371 0 0 0 43.951172 272.38867 A 374.20371 374.20371 0 0 0 43.414062 273.92383 A 374.20371 374.20371 0 0 0 42.882812 275.46094 A 374.20371 374.20371 0 0 0 42.359375 277 A 374.20371 374.20371 0 0 0 41.841797 278.54297 A 374.20371 374.20371 0 0 0 41.330078 280.08789 A 374.20371 374.20371 0 0 0 40.826172 281.63281 A 374.20371 374.20371 0 0 0 40.328125 283.18164 A 374.20371 374.20371 0 0 0 39.837891 284.73242 A 374.20371 374.20371 0 0 0 39.353516 286.28711 A 374.20371 374.20371 0 0 0 38.876953 287.8418 A 374.20371 374.20371 0 0 0 38.40625 289.39844 A 374.20371 374.20371 0 0 0 37.941406 290.95703 A 374.20371 374.20371 0 0 0 37.484375 292.51953 A 374.20371 374.20371 0 0 0 37.035156 294.08203 A 374.20371 374.20371 0 0 0 36.591797 295.64648 A 374.20371 374.20371 0 0 0 36.154297 297.21484 A 374.20371 374.20371 0 0 0 35.724609 298.7832 A 374.20371 374.20371 0 0 0 35.302734 300.35352 A 374.20371 374.20371 0 0 0 34.886719 301.92578 A 374.20371 374.20371 0 0 0 34.476562 303.5 A 374.20371 374.20371 0 0 0 34.074219 305.07617 A 374.20371 374.20371 0 0 0 33.679688 306.6543 A 374.20371 374.20371 0 0 0 33.291016 308.23438 A 374.20371 374.20371 0 0 0 32.908203 309.81445 A 374.20371 374.20371 0 0 0 32.533203 311.39844 A 374.20371 374.20371 0 0 0 32.166016 312.98242 A 374.20371 374.20371 0 0 0 31.804688 314.56836 A 374.20371 374.20371 0 0 0 31.710938 314.99023 L 69.869141 335.68555 A 332.65307 332.65307 0 0 0 64.197266 396.84961 A 332.65307 332.65307 0 0 0 68.236328 448.52734 L 29.494141 468.11133 A 374.20371 374.20371 0 0 0 29.580078 468.55078 A 374.20371 374.20371 0 0 0 29.894531 470.14648 A 374.20371 374.20371 0 0 0 30.216797 471.74219 A 374.20371 374.20371 0 0 0 30.546875 473.33398 A 374.20371 374.20371 0 0 0 30.882812 474.92578 A 374.20371 374.20371 0 0 0 31.224609 476.51562 A 374.20371 374.20371 0 0 0 31.574219 478.10547 A 374.20371 374.20371 0 0 0 31.931641 479.69141 A 374.20371 374.20371 0 0 0 32.294922 481.27734 A 374.20371 374.20371 0 0 0 32.666016 482.86133 A 374.20371 374.20371 0 0 0 33.042969 484.44336 A 374.20371 374.20371 0 0 0 33.427734 486.02344 A 374.20371 374.20371 0 0 0 33.818359 487.60352 A 374.20371 374.20371 0 0 0 34.216797 489.17969 A 374.20371 374.20371 0 0 0 34.621094 490.75586 A 374.20371 374.20371 0 0 0 35.033203 492.33008 A 374.20371 374.20371 0 0 0 35.451172 493.90234 A 374.20371 374.20371 0 0 0 35.876953 495.4707 A 374.20371 374.20371 0 0 0 36.308594 497.03906 A 374.20371 374.20371 0 0 0 36.748047 498.60547 A 374.20371 374.20371 0 0 0 37.193359 500.16992 A 374.20371 374.20371 0 0 0 37.646484 501.73242 A 374.20371 374.20371 0 0 0 38.105469 503.29297 A 374.20371 374.20371 0 0 0 38.570312 504.85156 A 374.20371 374.20371 0 0 0 39.042969 506.4082 A 374.20371 374.20371 0 0 0 39.523438 507.96289 A 374.20371 374.20371 0 0 0 40.009766 509.51562 A 374.20371 374.20371 0 0 0 40.503906 511.06445 A 374.20371 374.20371 0 0 0 41.001953 512.61328 A 374.20371 374.20371 0 0 0 41.509766 514.1582 A 374.20371 374.20371 0 0 0 42.023438 515.70312 A 374.20371 374.20371 0 0 0 42.542969 517.24414 A 374.20371 374.20371 0 0 0 43.070312 518.7832 A 374.20371 374.20371 0 0 0 43.603516 520.31836 A 374.20371 374.20371 0 0 0 44.142578 521.85352 A 374.20371 374.20371 0 0 0 44.689453 523.38477 A 374.20371 374.20371 0 0 0 45.242188 524.91602 A 374.20371 374.20371 0 0 0 45.802734 526.44336 A 374.20371 374.20371 0 0 0 46.369141 527.9668 A 374.20371 374.20371 0 0 0 46.943359 529.49023 A 374.20371 374.20371 0 0 0 47.523438 531.00977 A 374.20371 374.20371 0 0 0 48.109375 532.52734 A 374.20371 374.20371 0 0 0 48.703125 534.04102 A 374.20371 374.20371 0 0 0 49.302734 535.55273 A 374.20371 374.20371 0 0 0 49.908203 537.0625 A 374.20371 374.20371 0 0 0 50.521484 538.57031 A 374.20371 374.20371 0 0 0 51.140625 540.07422 A 374.20371 374.20371 0 0 0 51.765625 541.57617 A 374.20371 374.20371 0 0 0 52.398438 543.07422 A 374.20371 374.20371 0 0 0 53.037109 544.57031 A 374.20371 374.20371 0 0 0 53.330078 545.24805 L 96.367188 539.5625 A 332.65307 332.65307 0 0 0 161.37109 631.8125 L 141.53906 670.42773 A 374.20371 374.20371 0 0 0 142.41406 671.24219 A 374.20371 374.20371 0 0 0 143.60938 672.3457 A 374.20371 374.20371 0 0 0 144.80859 673.44336 A 374.20371 374.20371 0 0 0 146.01367 674.53711 A 374.20371 374.20371 0 0 0 147.22266 675.625 A 374.20371 374.20371 0 0 0 148.4375 676.70703 A 374.20371 374.20371 0 0 0 149.65625 677.7832 A 374.20371 374.20371 0 0 0 150.88086 678.85547 A 374.20371 374.20371 0 0 0 152.10742 679.92188 A 374.20371 374.20371 0 0 0 153.3418 680.98242 A 374.20371 374.20371 0 0 0 154.57812 682.03906 A 374.20371 374.20371 0 0 0 155.82031 683.08984 A 374.20371 374.20371 0 0 0 157.06641 684.13477 A 374.20371 374.20371 0 0 0 158.31836 685.17383 A 374.20371 374.20371 0 0 0 159.57422 686.20898 A 374.20371 374.20371 0 0 0 160.83398 687.23633 A 374.20371 374.20371 0 0 0 162.09766 688.25977 A 374.20371 374.20371 0 0 0 163.36719 689.27734 A 374.20371 374.20371 0 0 0 164.64062 690.29102 A 374.20371 374.20371 0 0 0 165.91797 691.29688 A 374.20371 374.20371 0 0 0 167.20117 692.29883 A 374.20371 374.20371 0 0 0 168.48633 693.29297 A 374.20371 374.20371 0 0 0 169.77734 694.2832 A 374.20371 374.20371 0 0 0 171.07227 695.26758 A 374.20371 374.20371 0 0 0 172.37305 696.24609 A 374.20371 374.20371 0 0 0 173.67578 697.21875 A 374.20371 374.20371 0 0 0 174.98438 698.1875 A 374.20371 374.20371 0 0 0 176.29492 699.14844 A 374.20371 374.20371 0 0 0 177.61133 700.10352 A 374.20371 374.20371 0 0 0 178.93164 701.05469 A 374.20371 374.20371 0 0 0 180.25586 701.99805 A 374.20371 374.20371 0 0 0 181.58398 702.9375 A 374.20371 374.20371 0 0 0 182.91797 703.87109 A 374.20371 374.20371 0 0 0 184.25391 704.79688 A 374.20371 374.20371 0 0 0 185.5957 705.71875 A 374.20371 374.20371 0 0 0 186.93945 706.63477 A 374.20371 374.20371 0 0 0 188.28711 707.54297 A 374.20371 374.20371 0 0 0 189.64062 708.44727 A 374.20371 374.20371 0 0 0 190.99609 709.3457 A 374.20371 374.20371 0 0 0 192.35742 710.23633 A 374.20371 374.20371 0 0 0 193.7207 711.12305 A 374.20371 374.20371 0 0 0 195.08984 712.00195 A 374.20371 374.20371 0 0 0 196.46094 712.87695 A 374.20371 374.20371 0 0 0 197.83789 713.74414 A 374.20371 374.20371 0 0 0 199.2168 714.60742 A 374.20371 374.20371 0 0 0 200.59961 715.46289 A 374.20371 374.20371 0 0 0 201.98633 716.3125 A 374.20371 374.20371 0 0 0 203.37695 717.1582 A 374.20371 374.20371 0 0 0 204.77148 717.99609 A 374.20371 374.20371 0 0 0 206.16016 718.82227 L 237.63672 688.92578 A 332.65307 332.65307 0 0 0 344.45117 725.34961 L 351.10547 768.24609 A 374.20371 374.20371 0 0 0 351.41602 768.28516 A 374.20371 374.20371 0 0 0 353.03125 768.48047 A 374.20371 374.20371 0 0 0 354.64648 768.66602 A 374.20371 374.20371 0 0 0 356.26367 768.8457 A 374.20371 374.20371 0 0 0 357.88086 769.01953 A 374.20371 374.20371 0 0 0 359.5 769.18555 A 374.20371 374.20371 0 0 0 361.11914 769.34375 A 374.20371 374.20371 0 0 0 362.73828 769.49609 A 374.20371 374.20371 0 0 0 364.35742 769.64062 A 374.20371 374.20371 0 0 0 365.97852 769.7793 A 374.20371 374.20371 0 0 0 367.59961 769.9082 A 374.20371 374.20371 0 0 0 369.22266 770.0332 A 374.20371 374.20371 0 0 0 370.8457 770.14844 A 374.20371 374.20371 0 0 0 372.46875 770.25977 A 374.20371 374.20371 0 0 0 374.0918 770.36133 A 374.20371 374.20371 0 0 0 375.71484 770.45703 A 374.20371 374.20371 0 0 0 377.33984 770.54492 A 374.20371 374.20371 0 0 0 378.96484 770.62695 A 374.20371 374.20371 0 0 0 380.58984 770.70117 A 374.20371 374.20371 0 0 0 382.21484 770.76758 A 374.20371 374.20371 0 0 0 383.83984 770.82812 A 374.20371 374.20371 0 0 0 385.46484 770.88086 A 374.20371 374.20371 0 0 0 387.0918 770.92773 A 374.20371 374.20371 0 0 0 388.7168 770.96484 A 374.20371 374.20371 0 0 0 390.34375 770.99805 A 374.20371 374.20371 0 0 0 391.9707 771.02148 A 374.20371 374.20371 0 0 0 393.59766 771.03906 A 374.20371 374.20371 0 0 0 395.22461 771.05078 A 374.20371 374.20371 0 0 0 396.84961 771.05469 A 374.20371 374.20371 0 0 0 397.42383 771.05273 A 374.20371 374.20371 0 0 0 399.05078 771.04688 A 374.20371 374.20371 0 0 0 400.67773 771.03516 A 374.20371 374.20371 0 0 0 402.30469 771.01367 A 374.20371 374.20371 0 0 0 403.92969 770.98633 A 374.20371 374.20371 0 0 0 405.55664 770.95312 A 374.20371 374.20371 0 0 0 407.18359 770.91211 A 374.20371 374.20371 0 0 0 408.80859 770.86328 A 374.20371 374.20371 0 0 0 410.43359 770.80664 A 374.20371 374.20371 0 0 0 412.06055 770.74414 A 374.20371 374.20371 0 0 0 413.68555 770.67578 A 374.20371 374.20371 0 0 0 415.31055 770.59766 A 374.20371 374.20371 0 0 0 416.93359 770.51562 A 374.20371 374.20371 0 0 0 418.55859 770.42383 A 374.20371 374.20371 0 0 0 420.18164 770.32617 A 374.20371 374.20371 0 0 0 421.80469 770.2207 A 374.20371 374.20371 0 0 0 423.42773 770.10938 A 374.20371 374.20371 0 0 0 425.05078 769.99023 A 374.20371 374.20371 0 0 0 426.67188 769.86328 A 374.20371 374.20371 0 0 0 428.29297 769.73047 A 374.20371 374.20371 0 0 0 429.91406 769.58984 A 374.20371 374.20371 0 0 0 431.53516 769.44336 A 374.20371 374.20371 0 0 0 431.83008 769.41602 L 439.72266 726.72852 A 332.65307 332.65307 0 0 0 547.54688 693.41016 L 578.14453 724.20508 A 374.20371 374.20371 0 0 0 578.15039 724.20117 A 374.20371 374.20371 0 0 0 579.57031 723.41016 A 374.20371 374.20371 0 0 0 580.98828 722.61328 A 374.20371 374.20371 0 0 0 582.40234 721.81055 A 374.20371 374.20371 0 0 0 583.81445 721 A 374.20371 374.20371 0 0 0 585.2207 720.18359 A 374.20371 374.20371 0 0 0 586.625 719.36328 A 374.20371 374.20371 0 0 0 588.02539 718.53516 A 374.20371 374.20371 0 0 0 589.42188 717.70117 A 374.20371 374.20371 0 0 0 590.81445 716.85938 A 374.20371 374.20371 0 0 0 592.20312 716.01367 A 374.20371 374.20371 0 0 0 593.58984 715.16211 A 374.20371 374.20371 0 0 0 594.9707 714.30273 A 374.20371 374.20371 0 0 0 596.34961 713.43945 A 374.20371 374.20371 0 0 0 597.72461 712.56836 A 374.20371 374.20371 0 0 0 599.09375 711.69336 A 374.20371 374.20371 0 0 0 600.46094 710.81055 A 374.20371 374.20371 0 0 0 601.82422 709.92188 A 374.20371 374.20371 0 0 0 603.18359 709.0293 A 374.20371 374.20371 0 0 0 604.53711 708.12891 A 374.20371 374.20371 0 0 0 605.88867 707.22266 A 374.20371 374.20371 0 0 0 607.23633 706.3125 A 374.20371 374.20371 0 0 0 608.58008 705.39453 A 374.20371 374.20371 0 0 0 609.91797 704.4707 A 374.20371 374.20371 0 0 0 611.25391 703.54102 A 374.20371 374.20371 0 0 0 612.58594 702.60742 A 374.20371 374.20371 0 0 0 613.91211 701.66602 A 374.20371 374.20371 0 0 0 615.23438 700.71875 A 374.20371 374.20371 0 0 0 616.55469 699.76758 A 374.20371 374.20371 0 0 0 617.86914 698.81055 A 374.20371 374.20371 0 0 0 619.17969 697.8457 A 374.20371 374.20371 0 0 0 620.48633 696.87695 A 374.20371 374.20371 0 0 0 621.78711 695.90234 A 374.20371 374.20371 0 0 0 623.08594 694.92188 A 374.20371 374.20371 0 0 0 624.37891 693.93555 A 374.20371 374.20371 0 0 0 625.66797 692.94336 A 374.20371 374.20371 0 0 0 626.95312 691.94531 A 374.20371 374.20371 0 0 0 628.23438 690.94336 A 374.20371 374.20371 0 0 0 629.50977 689.93359 A 374.20371 374.20371 0 0 0 630.78125 688.91992 A 374.20371 374.20371 0 0 0 632.04883 687.90039 A 374.20371 374.20371 0 0 0 633.3125 686.875 A 374.20371 374.20371 0 0 0 634.57031 685.84375 A 374.20371 374.20371 0 0 0 635.82422 684.80859 A 374.20371 374.20371 0 0 0 637.07422 683.76758 A 374.20371 374.20371 0 0 0 638.31836 682.71875 A 374.20371 374.20371 0 0 0 639.55859 681.66797 A 374.20371 374.20371 0 0 0 640.79492 680.60938 A 374.20371 374.20371 0 0 0 642.02734 679.54688 A 374.20371 374.20371 0 0 0 643.25391 678.47852 A 374.20371 374.20371 0 0 0 644.13867 677.70117 L 625.43164 638.52734 A 332.65307 332.65307 0 0 0 693.08008 548.19727 L 735.93359 555.125 A 374.20371 374.20371 0 0 0 736.25195 554.44141 A 374.20371 374.20371 0 0 0 736.93359 552.96484 A 374.20371 374.20371 0 0 0 737.60938 551.48438 A 374.20371 374.20371 0 0 0 738.27734 550.00195 A 374.20371 374.20371 0 0 0 738.94141 548.51562 A 374.20371 374.20371 0 0 0 739.59766 547.02734 A 374.20371 374.20371 0 0 0 740.24609 545.53711 A 374.20371 374.20371 0 0 0 740.88867 544.04297 A 374.20371 374.20371 0 0 0 741.52539 542.54492 A 374.20371 374.20371 0 0 0 742.15625 541.04688 A 374.20371 374.20371 0 0 0 742.7793 539.54297 A 374.20371 374.20371 0 0 0 743.39648 538.03906 A 374.20371 374.20371 0 0 0 744.00781 536.53125 A 374.20371 374.20371 0 0 0 744.61133 535.01953 A 374.20371 374.20371 0 0 0 745.20898 533.50781 A 374.20371 374.20371 0 0 0 745.79883 531.99219 A 374.20371 374.20371 0 0 0 746.38281 530.47266 A 374.20371 374.20371 0 0 0 746.96094 528.95312 A 374.20371 374.20371 0 0 0 747.53125 527.42969 A 374.20371 374.20371 0 0 0 748.0957 525.9043 A 374.20371 374.20371 0 0 0 748.6543 524.375 A 374.20371 374.20371 0 0 0 749.20508 522.8457 A 374.20371 374.20371 0 0 0 749.75 521.3125 A 374.20371 374.20371 0 0 0 750.28711 519.77734 A 374.20371 374.20371 0 0 0 750.81836 518.24023 A 374.20371 374.20371 0 0 0 751.3418 516.69922 A 374.20371 374.20371 0 0 0 751.85938 515.1582 A 374.20371 374.20371 0 0 0 752.37109 513.61328 A 374.20371 374.20371 0 0 0 752.875 512.06641 A 374.20371 374.20371 0 0 0 753.37305 510.51758 A 374.20371 374.20371 0 0 0 753.86328 508.9668 A 374.20371 374.20371 0 0 0 754.34766 507.41406 A 374.20371 374.20371 0 0 0 754.82422 505.85938 A 374.20371 374.20371 0 0 0 755.29492 504.30273 A 374.20371 374.20371 0 0 0 755.75781 502.74219 A 374.20371 374.20371 0 0 0 756.21484 501.18164 A 374.20371 374.20371 0 0 0 756.66602 499.61914 A 374.20371 374.20371 0 0 0 757.10938 498.05469 A 374.20371 374.20371 0 0 0 757.54492 496.48633 A 374.20371 374.20371 0 0 0 757.97461 494.91797 A 374.20371 374.20371 0 0 0 758.39844 493.34766 A 374.20371 374.20371 0 0 0 758.81445 491.77539 A 374.20371 374.20371 0 0 0 759.22266 490.20117 A 374.20371 374.20371 0 0 0 759.625 488.625 A 374.20371 374.20371 0 0 0 760.02148 487.04688 A 374.20371 374.20371 0 0 0 760.41016 485.4668 A 374.20371 374.20371 0 0 0 760.79102 483.88477 A 374.20371 374.20371 0 0 0 761.16602 482.30273 A 374.20371 374.20371 0 0 0 761.53516 480.71875 A 374.20371 374.20371 0 0 0 761.89648 479.13281 A 374.20371 374.20371 0 0 0 761.99023 478.71094 L 723.83203 458.01562 A 332.65307 332.65307 0 0 0 729.50391 396.84961 A 332.65307 332.65307 0 0 0 725.46484 345.17188 L 764.20508 325.58789 A 374.20371 374.20371 0 0 0 764.12109 325.15039 A 374.20371 374.20371 0 0 0 763.80469 323.55469 A 374.20371 374.20371 0 0 0 763.48242 321.95898 A 374.20371 374.20371 0 0 0 763.1543 320.36719 A 374.20371 374.20371 0 0 0 762.81836 318.77539 A 374.20371 374.20371 0 0 0 762.47461 317.18555 A 374.20371 374.20371 0 0 0 762.125 315.5957 A 374.20371 374.20371 0 0 0 761.76953 314.00977 A 374.20371 374.20371 0 0 0 761.40625 312.42383 A 374.20371 374.20371 0 0 0 761.03516 310.83984 A 374.20371 374.20371 0 0 0 760.6582 309.25781 A 374.20371 374.20371 0 0 0 760.27344 307.67578 A 374.20371 374.20371 0 0 0 759.88281 306.09766 A 374.20371 374.20371 0 0 0 759.48438 304.51953 A 374.20371 374.20371 0 0 0 759.08008 302.94531 A 374.20371 374.20371 0 0 0 758.66797 301.37109 A 374.20371 374.20371 0 0 0 758.25 299.79883 A 374.20371 374.20371 0 0 0 757.82422 298.22852 A 374.20371 374.20371 0 0 0 757.39258 296.66016 A 374.20371 374.20371 0 0 0 756.95312 295.09375 A 374.20371 374.20371 0 0 0 756.50781 293.53125 A 374.20371 374.20371 0 0 0 756.05469 291.96875 A 374.20371 374.20371 0 0 0 755.5957 290.4082 A 374.20371 374.20371 0 0 0 755.12891 288.84961 A 374.20371 374.20371 0 0 0 754.65625 287.29297 A 374.20371 374.20371 0 0 0 754.17773 285.73828 A 374.20371 374.20371 0 0 0 753.69141 284.18555 A 374.20371 374.20371 0 0 0 753.19727 282.63672 A 374.20371 374.20371 0 0 0 752.69727 281.08789 A 374.20371 374.20371 0 0 0 752.19141 279.54297 A 374.20371 374.20371 0 0 0 751.67773 277.99805 A 374.20371 374.20371 0 0 0 751.1582 276.45703 A 374.20371 374.20371 0 0 0 750.63086 274.91797 A 374.20371 374.20371 0 0 0 750.09766 273.38086 A 374.20371 374.20371 0 0 0 749.55859 271.84766 A 374.20371 374.20371 0 0 0 749.01172 270.31445 A 374.20371 374.20371 0 0 0 748.45703 268.78516 A 374.20371 374.20371 0 0 0 747.89844 267.25781 A 374.20371 374.20371 0 0 0 747.33203 265.73438 A 374.20371 374.20371 0 0 0 746.75781 264.21094 A 374.20371 374.20371 0 0 0 746.17773 262.69141 A 374.20371 374.20371 0 0 0 745.5918 261.17383 A 374.20371 374.20371 0 0 0 744.99805 259.66016 A 374.20371 374.20371 0 0 0 744.39844 258.14648 A 374.20371 374.20371 0 0 0 743.79297 256.63867 A 374.20371 374.20371 0 0 0 743.17969 255.13086 A 374.20371 374.20371 0 0 0 742.56055 253.62695 A 374.20371 374.20371 0 0 0 741.93555 252.125 A 374.20371 374.20371 0 0 0 741.30273 250.62695 A 374.20371 374.20371 0 0 0 740.66406 249.13086 A 374.20371 374.20371 0 0 0 740.36914 248.45117 L 697.33398 254.13672 A 332.65307 332.65307 0 0 0 632.32812 161.88672 L 652.16016 123.27344 A 374.20371 374.20371 0 0 0 651.28711 122.45898 A 374.20371 374.20371 0 0 0 650.0918 121.35547 A 374.20371 374.20371 0 0 0 648.89258 120.25781 A 374.20371 374.20371 0 0 0 647.6875 119.16406 A 374.20371 374.20371 0 0 0 646.47656 118.07617 A 374.20371 374.20371 0 0 0 645.26367 116.99414 A 374.20371 374.20371 0 0 0 644.04492 115.91797 A 374.20371 374.20371 0 0 0 642.82031 114.8457 A 374.20371 374.20371 0 0 0 641.5918 113.7793 A 374.20371 374.20371 0 0 0 640.35938 112.7168 A 374.20371 374.20371 0 0 0 639.12305 111.66211 A 374.20371 374.20371 0 0 0 637.88086 110.61133 A 374.20371 374.20371 0 0 0 636.63477 109.56641 A 374.20371 374.20371 0 0 0 635.38281 108.52734 A 374.20371 374.20371 0 0 0 634.12695 107.49219 A 374.20371 374.20371 0 0 0 632.86719 106.46289 A 374.20371 374.20371 0 0 0 631.60352 105.43945 A 374.20371 374.20371 0 0 0 630.33398 104.42188 A 374.20371 374.20371 0 0 0 629.06055 103.41016 A 374.20371 374.20371 0 0 0 627.7832 102.4043 A 374.20371 374.20371 0 0 0 626.5 101.40234 A 374.20371 374.20371 0 0 0 625.21289 100.4082 A 374.20371 374.20371 0 0 0 623.92383 99.417969 A 374.20371 374.20371 0 0 0 622.62891 98.433594 A 374.20371 374.20371 0 0 0 621.32812 97.455078 A 374.20371 374.20371 0 0 0 620.02539 96.482422 A 374.20371 374.20371 0 0 0 618.7168 95.513672 A 374.20371 374.20371 0 0 0 617.4043 94.552734 A 374.20371 374.20371 0 0 0 616.08984 93.597656 A 374.20371 374.20371 0 0 0 614.76953 92.646484 A 374.20371 374.20371 0 0 0 613.44531 91.701172 A 374.20371 374.20371 0 0 0 612.11523 90.763672 A 374.20371 374.20371 0 0 0 610.7832 89.830078 A 374.20371 374.20371 0 0 0 609.44727 88.904297 A 374.20371 374.20371 0 0 0 608.10547 87.982422 A 374.20371 374.20371 0 0 0 606.76172 87.066406 A 374.20371 374.20371 0 0 0 605.41211 86.158203 A 374.20371 374.20371 0 0 0 604.06055 85.253906 A 374.20371 374.20371 0 0 0 602.70312 84.355469 A 374.20371 374.20371 0 0 0 601.34375 83.464844 A 374.20371 374.20371 0 0 0 599.97852 82.578125 A 374.20371 374.20371 0 0 0 598.61133 81.697266 A 374.20371 374.20371 0 0 0 597.23828 80.824219 A 374.20371 374.20371 0 0 0 595.86328 79.955078 A 374.20371 374.20371 0 0 0 594.48438 79.09375 A 374.20371 374.20371 0 0 0 593.10156 78.238281 A 374.20371 374.20371 0 0 0 591.71484 77.386719 A 374.20371 374.20371 0 0 0 590.32422 76.542969 A 374.20371 374.20371 0 0 0 588.92969 75.705078 A 374.20371 374.20371 0 0 0 587.53906 74.876953 L 556.06445 104.77344 A 332.65307 332.65307 0 0 0 449.25 68.349609 L 442.59766 25.455078 z M 396.84961 195.72266 A 201.12688 201.12688 0 0 1 460.82422 206.16992 L 460.82422 258.98633 L 332.87695 258.98633 L 332.87695 206.16992 A 201.12688 201.12688 0 0 1 396.84961 195.72266 z M 285.25977 229.51953 L 285.25977 564.17969 A 201.12688 201.12688 0 0 1 195.72266 396.84961 A 201.12688 201.12688 0 0 1 285.25977 229.51953 z M 508.43945 229.51953 A 201.12688 201.12688 0 0 1 597.97656 396.84961 A 201.12688 201.12688 0 0 1 508.43945 564.17969 L 508.43945 229.51953 z M 332.87695 303.97852 L 460.82422 303.97852 L 460.82422 374.49219 L 332.87695 374.49219 L 332.87695 303.97852 z M 332.87695 419.48633 L 460.82422 419.48633 L 460.82422 490 L 332.87695 490 L 332.87695 419.48633 z M 332.87695 534.99219 L 460.82422 534.99219 L 460.82422 587.5293 A 201.12688 201.12688 0 0 1 396.84961 597.97656 A 201.12688 201.12688 0 0 1 332.87695 587.53125 L 332.87695 534.99219 z "
       transform="scale(0.26458333)" />
  </g>
</svg>
